<svg width="831" height="103" viewBox="0 0 831 103" fill="none" xmlns="http://www.w3.org/2000/svg">
<path d="M26.336 77.672C21.408 77.672 16.992 76.872 13.088 75.272C9.184 73.672 6.048 71.304 3.68 68.168C1.376 65.032 0.16 61.256 0.0320003 56.84H17.504C17.76 59.336 18.624 61.256 20.096 62.6C21.568 63.88 23.488 64.52 25.856 64.52C28.288 64.52 30.208 63.976 31.616 62.888C33.024 61.736 33.728 60.168 33.728 58.184C33.728 56.52 33.152 55.144 32 54.056C30.912 52.968 29.536 52.072 27.872 51.368C26.272 50.664 23.968 49.864 20.96 48.968C16.608 47.624 13.056 46.28 10.304 44.936C7.552 43.592 5.184 41.608 3.2 38.984C1.216 36.36 0.224 32.936 0.224 28.712C0.224 22.44 2.496 17.544 7.04 14.024C11.584 10.44 17.504 8.648 24.8 8.648C32.224 8.648 38.208 10.44 42.752 14.024C47.296 17.544 49.728 22.472 50.048 28.808H32.288C32.16 26.632 31.36 24.936 29.888 23.72C28.416 22.44 26.528 21.8 24.224 21.8C22.24 21.8 20.64 22.344 19.424 23.432C18.208 24.456 17.6 25.96 17.6 27.944C17.6 30.12 18.624 31.816 20.672 33.032C22.72 34.248 25.92 35.56 30.272 36.968C34.624 38.44 38.144 39.848 40.832 41.192C43.584 42.536 45.952 44.488 47.936 47.048C49.92 49.608 50.912 52.904 50.912 56.936C50.912 60.776 49.92 64.264 47.936 67.4C46.016 70.536 43.2 73.032 39.488 74.888C35.776 76.744 31.392 77.672 26.336 77.672ZM112.375 31.304C112.375 35.208 111.479 38.792 109.687 42.056C107.895 45.256 105.143 47.848 101.431 49.832C97.7185 51.816 93.1105 52.808 87.6065 52.808H77.4305V77H61.0145V9.608H87.6065C92.9825 9.608 97.5265 10.536 101.239 12.392C104.951 14.248 107.735 16.808 109.591 20.072C111.447 23.336 112.375 27.08 112.375 31.304ZM86.3585 39.752C89.4945 39.752 91.8305 39.016 93.3665 37.544C94.9025 36.072 95.6705 33.992 95.6705 31.304C95.6705 28.616 94.9025 26.536 93.3665 25.064C91.8305 23.592 89.4945 22.856 86.3585 22.856H77.4305V39.752H86.3585Z" fill="#185666"/>
<path d="M217.585 9.608V77H201.169V36.584L186.097 77H172.849L157.681 36.488V77H141.265V9.608H160.656L179.569 56.264L198.289 9.608H217.585ZM279.885 49.352C279.885 50.888 279.79 52.488 279.598 54.152H242.446C242.702 57.48 243.758 60.04 245.614 61.832C247.534 63.56 249.87 64.424 252.622 64.424C256.718 64.424 259.566 62.696 261.166 59.24H278.638C277.742 62.76 276.11 65.928 273.742 68.744C271.438 71.56 268.526 73.768 265.006 75.368C261.486 76.968 257.55 77.768 253.198 77.768C247.95 77.768 243.278 76.648 239.182 74.408C235.086 72.168 231.886 68.968 229.582 64.808C227.278 60.648 226.126 55.784 226.126 50.216C226.126 44.648 227.246 39.784 229.486 35.624C231.79 31.464 234.99 28.264 239.086 26.024C243.182 23.784 247.886 22.664 253.198 22.664C258.382 22.664 262.99 23.752 267.022 25.928C271.054 28.104 274.19 31.208 276.43 35.24C278.734 39.272 279.885 43.976 279.885 49.352ZM263.086 45.032C263.086 42.216 262.126 39.976 260.206 38.312C258.286 36.648 255.886 35.816 253.006 35.816C250.254 35.816 247.918 36.616 245.998 38.216C244.142 39.816 242.99 42.088 242.542 45.032H263.086ZM285.282 50.12C285.282 44.616 286.306 39.784 288.354 35.624C290.466 31.464 293.314 28.264 296.898 26.024C300.482 23.784 304.482 22.664 308.898 22.664C312.418 22.664 315.618 23.4 318.498 24.872C321.442 26.344 323.746 28.328 325.41 30.824V5.96H341.826V77H325.41V69.32C323.874 71.88 321.666 73.928 318.786 75.464C315.97 77 312.674 77.768 308.898 77.768C304.482 77.768 300.482 76.648 296.898 74.408C293.314 72.104 290.466 68.872 288.354 64.712C286.306 60.488 285.282 55.624 285.282 50.12ZM325.41 50.216C325.41 46.12 324.258 42.888 321.954 40.52C319.714 38.152 316.962 36.968 313.698 36.968C310.434 36.968 307.65 38.152 305.346 40.52C303.106 42.824 301.986 46.024 301.986 50.12C301.986 54.216 303.106 57.48 305.346 59.912C307.65 62.28 310.434 63.464 313.698 63.464C316.962 63.464 319.714 62.28 321.954 59.912C324.258 57.544 325.41 54.312 325.41 50.216ZM361.958 17.864C359.078 17.864 356.71 17.032 354.854 15.368C353.062 13.64 352.166 11.528 352.166 9.032C352.166 6.472 353.062 4.36 354.854 2.696C356.71 0.967995 359.078 0.103994 361.958 0.103994C364.774 0.103994 367.078 0.967995 368.87 2.696C370.726 4.36 371.654 6.472 371.654 9.032C371.654 11.528 370.726 13.64 368.87 15.368C367.078 17.032 364.774 17.864 361.958 17.864ZM370.118 23.432V77H353.702V23.432H370.118ZM378.751 50.216C378.751 44.648 379.871 39.784 382.111 35.624C384.415 31.464 387.583 28.264 391.615 26.024C395.711 23.784 400.383 22.664 405.631 22.664C412.351 22.664 417.951 24.424 422.431 27.944C426.975 31.464 429.951 36.424 431.359 42.824H413.887C412.415 38.728 409.567 36.68 405.343 36.68C402.335 36.68 399.935 37.864 398.143 40.232C396.351 42.536 395.455 45.864 395.455 50.216C395.455 54.568 396.351 57.928 398.143 60.296C399.935 62.6 402.335 63.752 405.343 63.752C409.567 63.752 412.415 61.704 413.887 57.608H431.359C429.951 63.88 426.975 68.808 422.431 72.392C417.887 75.976 412.287 77.768 405.631 77.768C400.383 77.768 395.711 76.648 391.615 74.408C387.583 72.168 384.415 68.968 382.111 64.808C379.871 60.648 378.751 55.784 378.751 50.216ZM436.876 50.12C436.876 44.616 437.9 39.784 439.948 35.624C442.06 31.464 444.908 28.264 448.492 26.024C452.076 23.784 456.076 22.664 460.492 22.664C464.268 22.664 467.564 23.432 470.38 24.968C473.26 26.504 475.468 28.52 477.004 31.016V23.432H493.42V77H477.004V69.416C475.404 71.912 473.164 73.928 470.284 75.464C467.468 77 464.172 77.768 460.396 77.768C456.044 77.768 452.076 76.648 448.492 74.408C444.908 72.104 442.06 68.872 439.948 64.712C437.9 60.488 436.876 55.624 436.876 50.12ZM477.004 50.216C477.004 46.12 475.852 42.888 473.548 40.52C471.308 38.152 468.556 36.968 465.292 36.968C462.028 36.968 459.244 38.152 456.94 40.52C454.7 42.824 453.58 46.024 453.58 50.12C453.58 54.216 454.7 57.48 456.94 59.912C459.244 62.28 462.028 63.464 465.292 63.464C468.556 63.464 471.308 62.28 473.548 59.912C475.852 57.544 477.004 54.312 477.004 50.216ZM521.712 5.96V77H505.296V5.96H521.712ZM578.344 30.92C577.128 28.68 575.368 26.984 573.064 25.832C570.824 24.616 568.168 24.008 565.096 24.008C559.784 24.008 555.528 25.768 552.328 29.288C549.128 32.744 547.528 37.384 547.528 43.208C547.528 49.416 549.192 54.28 552.52 57.8C555.912 61.256 560.552 62.984 566.44 62.984C570.472 62.984 573.864 61.96 576.616 59.912C579.432 57.864 581.48 54.92 582.76 51.08H561.928V38.984H597.64V54.248C596.424 58.344 594.344 62.152 591.4 65.672C588.52 69.192 584.84 72.04 580.36 74.216C575.88 76.392 570.824 77.48 565.192 77.48C558.536 77.48 552.584 76.04 547.336 73.16C542.152 70.216 538.088 66.152 535.144 60.968C532.264 55.784 530.824 49.864 530.824 43.208C530.824 36.552 532.264 30.632 535.144 25.448C538.088 20.2 542.152 16.136 547.336 13.256C552.52 10.312 558.44 8.84 565.096 8.84C573.16 8.84 579.944 10.792 585.448 14.696C591.016 18.6 594.696 24.008 596.488 30.92H578.344ZM623.149 32.36C625.069 29.416 627.469 27.112 630.349 25.448C633.229 23.72 636.429 22.856 639.949 22.856V40.232H635.437C631.341 40.232 628.269 41.128 626.221 42.92C624.173 44.648 623.149 47.72 623.149 52.136V77H606.733V23.432H623.149V32.36ZM672.18 77.768C666.932 77.768 662.196 76.648 657.972 74.408C653.812 72.168 650.516 68.968 648.084 64.808C645.716 60.648 644.532 55.784 644.532 50.216C644.532 44.712 645.748 39.88 648.18 35.72C650.612 31.496 653.94 28.264 658.164 26.024C662.388 23.784 667.124 22.664 672.372 22.664C677.62 22.664 682.356 23.784 686.58 26.024C690.804 28.264 694.132 31.496 696.564 35.72C698.996 39.88 700.212 44.712 700.212 50.216C700.212 55.72 698.964 60.584 696.468 64.808C694.036 68.968 690.676 72.168 686.388 74.408C682.164 76.648 677.428 77.768 672.18 77.768ZM672.18 63.56C675.316 63.56 677.972 62.408 680.148 60.104C682.388 57.8 683.508 54.504 683.508 50.216C683.508 45.928 682.42 42.632 680.244 40.328C678.132 38.024 675.508 36.872 672.372 36.872C669.172 36.872 666.516 38.024 664.404 40.328C662.292 42.568 661.236 45.864 661.236 50.216C661.236 54.504 662.26 57.8 664.308 60.104C666.42 62.408 669.044 63.56 672.18 63.56ZM761.817 23.432V77H745.401V69.704C743.737 72.072 741.465 73.992 738.585 75.464C735.769 76.872 732.633 77.576 729.177 77.576C725.081 77.576 721.465 76.68 718.329 74.888C715.193 73.032 712.761 70.376 711.033 66.92C709.305 63.464 708.441 59.4 708.441 54.728V23.432H724.761V52.52C724.761 56.104 725.689 58.888 727.545 60.872C729.401 62.856 731.897 63.848 735.033 63.848C738.233 63.848 740.761 62.856 742.617 60.872C744.473 58.888 745.401 56.104 745.401 52.52V23.432H761.817ZM790.024 31.016C791.624 28.52 793.832 26.504 796.648 24.968C799.464 23.432 802.76 22.664 806.536 22.664C810.952 22.664 814.952 23.784 818.536 26.024C822.12 28.264 824.936 31.464 826.984 35.624C829.096 39.784 830.152 44.616 830.152 50.12C830.152 55.624 829.096 60.488 826.984 64.712C824.936 68.872 822.12 72.104 818.536 74.408C814.952 76.648 810.952 77.768 806.536 77.768C802.824 77.768 799.528 77 796.648 75.464C793.832 73.928 791.624 71.944 790.024 69.512V102.536H773.608V23.432H790.024V31.016ZM813.448 50.12C813.448 46.024 812.296 42.824 809.992 40.52C807.752 38.152 804.968 36.968 801.64 36.968C798.376 36.968 795.592 38.152 793.288 40.52C791.048 42.888 789.928 46.12 789.928 50.216C789.928 54.312 791.048 57.544 793.288 59.912C795.592 62.28 798.376 63.464 801.64 63.464C804.904 63.464 807.688 62.28 809.992 59.912C812.296 57.48 813.448 54.216 813.448 50.12Z" fill="#37C3E6"/>
</svg>
